HIERARCHY
ROOT Hips
{
 OFFSET 0.000000 0.000000 0.000000
 CHANNELS 6 Xposition Yposition Zposition Yrotation Xrotation Zrotation
 JOINT Chest
 {
  OFFSET 0.000000 9.585900 0.002600
  CHANNELS 3 Yrotation Xrotation Zrotation
  JOINT Chest2
  {
   OFFSET 0.000000 9.601200 -0.005300
   CHANNELS 3 Yrotation Xrotation Zrotation
   JOINT Chest3
   {
    OFFSET 0.000000 9.561800 0.000000
    CHANNELS 3 Yrotation Xrotation Zrotation
    JOINT Chest4
    {
     OFFSET 0.000000 9.552100 0.000000
     CHANNELS 3 Yrotation Xrotation Zrotation
     JOINT Neck
     {
      OFFSET 0.000000 14.453000 0.000000
      CHANNELS 3 Yrotation Xrotation Zrotation
      JOINT Head
      {
       OFFSET 0.000000 8.936500 -0.011300
       CHANNELS 3 Yrotation Xrotation Zrotation
       End Site
       {
        OFFSET 0.000000 17.073600 -0.006000
       }
      }
     }
     JOINT RightCollar
     {
      OFFSET -2.921100 9.558500 0.000000
      CHANNELS 3 Yrotation Xrotation Zrotation
      JOINT RightShoulder
      {
       OFFSET -13.519700 0.000000 0.000000
       CHANNELS 3 Yrotation Xrotation Zrotation
       JOINT RightElbow
       {
        OFFSET 0.000000 -29.696600 0.000000
        CHANNELS 3 Yrotation Xrotation Zrotation
        JOINT RightWrist
        {
         OFFSET 0.000000 -24.004700 0.000000
         CHANNELS 3 Yrotation Xrotation Zrotation
         End Site
         {
          OFFSET 0.000000 -17.728500 0.000000
         }
        }
       }
      }
     }
     JOINT LeftCollar
     {
      OFFSET 2.921100 9.558500 0.000000
      CHANNELS 3 Yrotation Xrotation Zrotation
      JOINT LeftShoulder
      {
       OFFSET 13.519700 0.000000 0.000000
       CHANNELS 3 Yrotation Xrotation Zrotation
       JOINT LeftElbow
       {
        OFFSET 0.000000 -29.696600 0.000000
        CHANNELS 3 Yrotation Xrotation Zrotation
        JOINT LeftWrist
        {
         OFFSET 0.000000 -24.004700 0.000000
         CHANNELS 3 Yrotation Xrotation Zrotation
         End Site
         {
          OFFSET 0.000000 -17.728500 0.000000
         }
        }
       }
      }
     }
    }
   }
  }
 }
 JOINT RightHip
 {
  OFFSET -7.771700 -0.012900 -0.001300
  CHANNELS 3 Yrotation Xrotation Zrotation
  JOINT RightKnee
  {
   OFFSET 0.000000 -40.869800 0.001200
   CHANNELS 3 Yrotation Xrotation Zrotation
   JOINT RightAnkle
   {
    OFFSET 0.000000 -39.717900 0.002100
    CHANNELS 3 Yrotation Xrotation Zrotation
    JOINT RightToe
    {
     OFFSET 0.000000 -4.965400 11.033500
     CHANNELS 3 Yrotation Xrotation Zrotation
     End Site
     {
      OFFSET 0.000000 -1.423100 5.872300
     }
    }
   }
  }
 }
 JOINT LeftHip
 {
  OFFSET 7.771700 -0.012900 -0.001300
  CHANNELS 3 Yrotation Xrotation Zrotation
  JOINT LeftKnee
  {
   OFFSET 0.000000 -40.869800 0.001200
   CHANNELS 3 Yrotation Xrotation Zrotation
   JOINT LeftAnkle
   {
    OFFSET 0.000000 -39.717900 0.002100
    CHANNELS 3 Yrotation Xrotation Zrotation
    JOINT LeftToe
    {
     OFFSET 0.000000 -4.965400 11.033500
     CHANNELS 3 Yrotation Xrotation Zrotation
     End Site
     {
      OFFSET 0.000000 -1.423100 5.872300
     }
    }
   }
  }
 }
}
MOTION
Frames: 12
Frame Time: 0.008333
0.000000 85.388000 0.000000 0.000000 -5.767877 0.000000 0.000000 11.653817 0.000000 0.000000 -5.885947 0.000000 0.000000 -0.000000 0.000000 0.000000 -0.000000 0.000000 0.000000 12.528835 0.000000 0.000000 0.711642 0.000000 0.000000 -0.000000 0.000000 0.000000 0.000000 -90.000000 0.000000 -2.309062 0.000000 0.000000 2.309062 0.000000 0.000000 -0.000000 0.000000 0.000000 -0.000000 90.000000 0.000000 -2.309062 0.000000 0.000000 2.309062 0.000000 0.000000 8.520406 0.000000 0.000000 1.905762 0.000000 -0.000000 -4.658285 0.000000 0.000000 -0.000000 0.000000 0.000000 8.520406 0.000000 0.000000 1.905762 0.000000 -0.000000 -4.658285 0.000000 0.000000 -0.000000 0.000000
-44.566911 51.730772 19.489663 176.698337 -18.530107 0.276245 -1.836334 12.120499 0.328918 -0.168937 0.960349 0.114916 -0.226113 1.523744 0.123151 -1.565071 10.975702 0.720219 2.263172 10.637385 -5.313527 3.757120 -14.488964 -6.403443 5.973561 13.547995 10.390411 26.767857 -0.921862 -46.751169 -178.541892 -32.808588 161.325994 -17.704043 -5.900797 36.011262 -4.407057 13.977928 -13.664828 -25.562771 1.002255 34.522228 175.523710 -31.700725 -157.457011 26.307240 -10.381961 -38.534943 -12.142220 -64.210612 5.970278 -58.795884 82.368533 -66.886177 -3.267583 -7.463282 8.779533 0.075744 -0.418257 -0.055873 10.240256 -62.100289 -6.878966 51.301352 86.004134 57.544408 -1.046967 -14.136336 -0.423247 0.308720 0.402340 0.152816
-44.581099 51.741059 19.519787 176.679246 -18.489277 0.277916 -1.854728 12.154819 0.372882 -0.167868 0.937184 0.100205 -0.226094 1.529407 0.127189 -1.554486 10.972423 0.735499 2.766824 10.175972 -5.699367 4.446066 -14.992081 -7.022947 6.330775 13.296732 10.365792 27.427925 -1.264110 -48.177595 -179.031317 -32.511161 161.606760 -19.488071 -5.831824 40.028051 -4.972347 13.499736 -13.775822 -25.893594 0.345764 35.855478 175.071491 -31.289293 -157.588686 28.056267 -11.285055 -42.419098 -11.958971 -64.216439 5.765283 -58.127447 82.386102 -66.123126 -3.209298 -7.568981 8.835437 -0.003350 -0.308854 -0.122568 10.164572 -62.132234 -6.814601 50.674545 85.971274 56.891698 -1.064345 -14.115647 -0.454234 0.330241 0.415190 0.166479
-44.596185 51.755239 19.545968 176.661489 -18.500343 0.276909 -1.913498 12.223352 0.398791 -0.132056 0.897396 0.075834 -0.212957 1.539349 0.130022 -1.548017 11.024069 0.787963 3.202686 9.720257 -6.070349 5.060252 -15.426481 -7.544622 6.757602 12.904622 10.278173 28.207964 -1.889518 -49.750465 -179.558202 -32.584154 161.783889 -21.603475 -5.840996 44.881238 -5.550082 12.907862 -13.936923 -26.375174 -0.606249 37.502334 174.775463 -31.240985 -157.585612 30.062439 -12.132702 -46.793845 -11.764240 -64.170041 5.552307 -57.483576 82.398665 -65.390441 -3.174412 -7.660711 8.895603 -0.059206 -0.235980 -0.171348 9.892232 -62.122438 -6.571204 50.236404 85.937151 56.340090 -1.076351 -14.090156 -0.475435 0.354593 0.426071 0.180154
-44.606371 51.770415 19.573574 176.545454 -18.524486 0.271978 -1.844436 12.219452 0.424670 -0.131119 0.898114 0.074871 -0.211368 1.540484 0.128365 -1.561790 11.053969 0.785057 3.611056 9.376185 -6.315824 5.579506 -15.764259 -7.942030 7.307765 12.464288 10.229424 29.029826 -2.822586 -51.514566 -179.877915 -32.957129 161.714594 -24.115167 -5.912237 50.654380 -6.065631 12.329444 -14.087407 -27.023560 -1.845687 39.486938 174.585636 -31.491887 -157.364074 32.181084 -12.951527 -51.550840 -11.523882 -64.098702 5.394683 -56.596392 82.411996 -64.403786 -3.145818 -7.754788 8.937766 -0.125159 -0.141875 -0.206428 9.724908 -62.101636 -6.314789 49.984208 85.912348 56.002690 -1.047479 -14.052820 -0.475371 0.322713 0.400975 0.165637
-44.614846 51.782750 19.610570 176.405019 -18.503450 0.258241 -1.754607 12.117451 0.452205 -0.130025 0.896291 0.072572 -0.221460 1.531394 0.122753 -1.540236 11.051488 0.760451 3.928359 9.162208 -6.446328 5.991610 -15.990101 -8.199455 7.922934 12.015555 10.211532 29.879093 -3.998786 -53.528633 -179.771907 -33.535731 161.197485 -26.988413 -5.825450 57.253940 -6.583321 11.809627 -14.265305 -27.940260 -3.299599 41.845861 174.475155 -31.988986 -156.762912 34.237562 -13.677488 -56.487368 -11.308812 -64.064662 5.289389 -55.283860 82.432308 -62.977753 -3.154299 -7.768684 8.937564 -0.173023 -0.139519 -0.184025 9.642768 -62.122142 -6.121194 49.627977 85.874580 55.620551 -1.050186 -14.037271 -0.507092 0.330179 0.407157 0.170013
-44.622375 51.799065 19.633848 176.316617 -18.575857 0.225678 -1.713475 12.054375 0.464414 -0.128296 0.891140 0.069383 -0.218588 1.522877 0.117330 -1.527278 11.025056 0.725080 4.170559 9.055402 -6.476912 6.285588 -16.102355 -8.312210 8.615146 11.550539 10.211901 30.778703 -5.285326 -55.809195 -179.169563 -34.265834 160.161719 -30.002083 -5.247620 64.200395 -7.093984 11.339282 -14.493524 -29.178779 -4.888821 44.593577 174.369322 -32.735819 -155.668178 36.128021 -14.167573 -61.283168 -11.109250 -63.932345 5.142943 -54.228527 82.454175 -61.811010 -3.161064 -7.842167 8.941986 -0.214491 -0.040649 -0.203827 9.521648 -62.048956 -5.933402 49.254196 85.847367 55.242631 -0.999562 -13.990834 -0.527649 0.297962 0.376739 0.153545
-44.632893 51.815568 19.652836 176.237071 -18.675149 0.208622 -1.676403 11.969078 0.447187 -0.125470 0.882600 0.065495 -0.213913 1.508786 0.110749 -1.504930 10.980463 0.683505 4.328267 9.051281 -6.414219 6.450244 -16.105487 -8.284000 9.358772 11.070326 10.216929 31.744050 -6.567732 -58.319974 -178.036284 -35.091579 158.604341 -32.755009 -4.046832 70.799850 -7.616461 10.883816 -14.778545 -30.670909 -6.541095 47.654187 174.123685 -33.771301 -154.147084 37.818742 -14.276471 -65.486505 -10.852705 -63.768432 4.920901 -53.150973 82.482585 -60.609742 -3.164792 -7.952049 8.962335 -0.266148 0.080452 -0.243243 9.452934 -61.946661 -5.809325 49.017912 85.821898 55.019869 -0.985260 -13.968055 -0.552869 0.299913 0.362731 0.149742
-44.642805 51.831139 19.670267 176.156955 -18.781497 0.188864 -1.628463 11.853305 0.426839 -0.121621 0.872044 0.061101 -0.207513 1.491390 0.103439 -1.472020 10.925059 0.638050 4.400204 9.135797 -6.270385 6.487228 -16.014680 -8.129523 10.130228 10.562129 10.203210 32.783451 -7.785260 -60.998923 -176.340643 -35.921114 156.464230 -34.773310 -2.435928 76.323115 -8.178365 10.364661 -15.113401 -32.313575 -8.149994 50.880616 173.628397 -35.129777 -152.340465 39.240056 -14.028377 -68.622451 -10.578018 -63.601652 4.677335 -52.019984 82.524660 -59.337898 -3.144160 -8.028442 8.961772 -0.338068 0.135937 -0.259782 9.395281 -61.842575 -5.693570 48.828225 85.813979 54.851945 -0.986695 -13.968477 -0.580830 0.309807 0.357237 0.155534
-44.651188 51.849797 19.674641 176.094842 -18.964975 0.162771 -1.590560 11.789999 0.403346 -0.116969 0.861615 0.056778 -0.199683 1.474184 0.096225 -1.428050 10.870508 0.593740 4.393148 9.279775 -6.067127 6.412468 -15.861480 -7.879154 10.901776 10.001539 10.144322 33.972208 -8.865182 -63.768306 -174.390855 -36.799991 153.835785 -35.884628 -0.823424 80.248371 -8.810919 9.715134 -15.463464 -34.034859 -9.592187 54.124944 172.861699 -36.784126 -150.270489 40.279539 -13.654134 -70.392299 -10.287325 -63.359850 4.391662 -51.174806 82.559912 -58.355557 -3.083557 -8.143655 8.980916 -0.411612 0.198264 -0.286224 9.301948 -61.668225 -5.566700 48.365855 85.864654 54.430849 -0.895373 -13.924027 -0.617680 0.308929 0.308260 0.153030
-44.660228 51.868500 19.676177 176.030100 -19.157821 0.151677 -1.540696 11.727952 0.369614 -0.111490 0.852839 0.052946 -0.190348 1.459635 0.089669 -1.370782 10.825419 0.554590 4.309360 9.443220 -5.831470 6.239480 -15.688979 -7.569026 11.640087 9.364286 10.022018 35.418346 -9.682529 -66.533383 -172.670263 -37.993977 150.895018 -36.364804 0.331914 82.612000 -9.523790 8.924183 -15.765576 -35.805688 -10.775021 57.272456 171.881811 -38.649172 -147.877421 40.891575 -13.395285 -70.716457 -9.985407 -63.119387 4.092103 -50.401169 82.599859 -57.452225 -3.026982 -8.241587 9.001619 -0.469995 0.197945 -0.292362 9.232145 -61.488310 -5.453619 48.127863 85.907378 54.213956 -0.827906 -13.861215 -0.629498 0.292417 0.241547 0.142717
-44.666349 51.886497 19.679550 175.946554 -19.329163 0.145388 -1.455189 11.655426 0.350710 -0.105601 0.846456 0.049912 -0.180322 1.449035 0.084437 -1.304894 10.794007 0.524548 4.151775 9.590515 -5.595489 5.983745 -15.535223 -7.240442 12.325068 8.644890 9.817098 37.143550 -10.127277 -69.201205 -171.417557 -39.669060 147.701629 -36.506675 0.796611 83.662195 -10.277684 8.045339 -15.972298 -37.675544 -11.645297 60.254751 170.852089 -40.680747 -145.162112 41.146494 -13.324901 -69.640144 -9.757059 -62.909301 3.896586 -49.605267 82.652075 -56.562066 -3.046289 -8.313639 9.048463 -0.494162 0.209797 -0.329671 9.169981 -61.335454 -5.329927 47.879274 85.962046 53.981488 -0.758999 -13.785675 -0.639998 0.276314 0.165080 0.132012
